Simulation
nRows=16
nColumns=15
endheader
time  TH_x TH_y TH_z SC_y  SC_z  SC_x  AC_y  AC_z  AC_x  GH_y  GH_z  GH_yy  EL_x  PS_y
0.0  0.000000  0.000000  0.000000  -28.023596926862478  -0.8369154142477517  6.775322316562646  55.091367522746516  0.21691479826842172  -8.986770609439805  18.867141860900567  5.69808717850051  22.663316594322435  26.906366523328163  0.000000
0.039  0.000000  0.000000  0.000000  -27.72242588667747  -0.37930106218246595  6.572425753065891  54.77085377301166  0.6590340252783051  -8.742280680170559  19.32715518438253  5.9186950458356105  22.106692640190005  26.392857347150944  0.000000
0.078  0.000000  0.000000  0.000000  -27.312413661994217  -0.0583842098819232  6.252985531827635  54.42690074805709  0.8760893176275013  -8.500613428385824  20.34042777786537  6.033567620595697  20.972480659947642  25.776420855169043  0.000000
0.11699999999999999  0.000000  0.000000  0.000000  -27.06493325564853  0.2157970940621182  5.923264942118577  54.174201611751336  0.9451554043569244  -8.209900110603284  22.115097869635356  6.153918695118083  18.99277549081329  25.312007434157493  0.000000
0.156  0.000000  0.000000  0.000000  -26.904980259812337  0.42419087782894577  5.647206450921571  54.07198898153845  0.9565040563956382  -7.891856790704023  24.18247055003592  6.375434863723808  16.616622773271473  24.992159477956474  0.000000
0.195  0.000000  0.000000  0.000000  -26.8603008328438  0.5879217336016778  5.453601558161017  54.15342641080023  0.9476374320578005  -7.535099675245037  26.310139782087663  6.797789584409374  14.04733427052059  24.78395732035708  0.000000
0.23399999999999999  0.000000  0.000000  0.000000  -26.89651306522314  0.709314444877392  5.337175991676858  54.38433122011973  0.9659281375800056  -7.145862747704379  28.435326731489486  7.469540480070757  11.281187886976957  24.67606802800001  0.000000
0.273  0.000000  0.000000  0.000000  -27.00310717653355  0.7925352788809563  5.287089150481973  54.76747127373376  1.0335450046615586  -6.723566903792493  30.536155406966746  8.43052862147903  8.341344575207287  24.63985035827164  0.000000
0.312  0.000000  0.000000  0.000000  -27.147170866867548  0.8425279114897696  5.283349341947132  55.261857187527795  1.1755727687542288  -6.2753479307832025  32.622003234626156  9.681205951155528  5.207059526383725  24.672015701550926  0.000000
0.351  0.000000  0.000000  0.000000  -27.3155288837521  0.8653947461199688  5.307457643435644  55.85157271331324  1.4021848574274192  -5.805789521590868  34.673084722417826  11.216394984424594  1.9153206539119696  24.745635368690092  0.000000
0.39  0.000000  0.000000  0.000000  -27.485066679139756  0.8653894791919235  5.34179134143116  56.500114954640964  1.727376847698644  -5.327253262583531  36.655850796718994  13.01359009994221  -1.4889527082790261  24.854104059492858  0.000000
0.429  0.000000  0.000000  0.000000  -27.64200752847499  0.8478842626761414  5.377057775519877  57.18487944783063  2.155209638732053  -4.851280825037059  38.522052276051085  15.048587035777395  -4.93148351316786  24.972649605444893  0.000000
0.46799999999999997  0.000000  0.000000  0.000000  -27.772302220981686  0.8227051109255344  5.413044436738523  57.874063002261856  2.689260068889267  -4.394758825082932  40.23657495467771  17.290412407346288  -8.353564371105989  25.09435097972451  0.000000
0.507  0.000000  0.000000  0.000000  -27.86677141785877  0.8068523733952553  5.477231293947488  58.54688161350464  3.3006736506760572  -3.97586181315519  41.77209179472849  19.703167844381824  -11.695049294362448  25.199358708038147  0.000000
0.546  0.000000  0.000000  0.000000  -27.92038370524428  0.8101163586954233  5.599099853952503  59.18559797314952  3.953327040164879  -3.6083598684468723  43.11506295474587  22.24111401867571  -14.904700783053984  25.277567798315125  0.000000
0.585  0.000000  0.000000  0.000000  -27.92971602352224  0.8486099250380611  5.785320780399456  59.7803927919465  4.620224918639736  -3.282455402979375  44.27112345495181  24.85570851482022  -17.952409225778112  25.315868881794408  0.000000
